{
  "accessors": [
    {
      "bufferView": 2,
      "componentType": 5126,
      "count": 65532,
      "max": [
        1.1575638055801392,
        1.1760486364364624,
        1.2506978511810303
      ],
      "min": [
        -1.2504205703735352,
        -1.1784813404083252,
        -1.1698740720748901
      ],
      "type": "VEC3"
    },
    {
      "bufferView": 2,
      "byteOffset": 786384,
      "componentType": 5126,
      "count": 65532,
      "max": [
        0.9999788999557495,
        0.9999778270721436,
        0.9999560117721558
      ],
      "min": [
        -0.9999853372573853,
        -0.9999516010284424,
        -0.9999823570251465
      ],
      "type": "VEC3"
    },
    {
      "bufferView": 3,
      "componentType": 5126,
      "count": 65532,
      "max": [
        0.9999872446060181,
        0.9999998211860657,
        0.9999961256980896,
        1.0
      ],
      "min": [
        -0.9999873042106628,
        -1.0,
        -0.9999755024909973,
        -1.0
      ],
      "type": "VEC4"
    },
    {
      "bufferView": 1,
      "componentType": 5126,
      "count": 65532,
      "max": [
        0.9973370432853699,
        0.9977754950523376
      ],
      "min": [
        0.0019126500701531768,
        0.0019126500701531768
      ],
      "type": "VEC2"
    },
    {
      "bufferView": 1,
      "byteOffset": 524256,
      "componentType": 5126,
      "count": 65532,
      "max": [
        0.9973370432853699,
        0.9977754950523376
      ],
      "min": [
        0.0019126500701531768,
        0.0019126500701531768
      ],
      "type": "VEC2"
    },
    {
      "bufferView": 1,
      "byteOffset": 1048512,
      "componentType": 5126,
      "count": 65532,
      "max": [
        0.9973370432853699,
        0.9977754950523376
      ],
      "min": [
        0.0019126500701531768,
        0.0019126500701531768
      ],
      "type": "VEC2"
    },
    {
      "bufferView": 0,
      "componentType": 5125,
      "count": 317640,
      "type": "SCALAR"
    },
    {
      "bufferView": 2,
      "byteOffset": 1572768,
      "componentType": 5126,
      "count": 57350,
      "max": [
        1.1567904949188232,
        1.182132601737976,
        1.2736475467681885
      ],
      "min": [
        -1.2551853656768799,
        -1.1784813404083252,
        -1.1691136360168457
      ],
      "type": "VEC3"
    },
    {
      "bufferView": 2,
      "byteOffset": 2260968,
      "componentType": 5126,
      "count": 57350,
      "max": [
        0.9999788999557495,
        0.9999388456344604,
        0.9999926090240479
      ],
      "min": [
        -0.9999853372573853,
        -0.9998929500579834,
        -0.9999485015869141
      ],
      "type": "VEC3"
    },
    {
      "bufferView": 3,
      "byteOffset": 1048512,
      "componentType": 5126,
      "count": 57350,
      "max": [
        0.9999760389328003,
        0.9999998211860657,
        0.9999961256980896,
        1.0
      ],
      "min": [
        -0.9999911785125732,
        -0.9999957084655762,
        -0.999943733215332,
        -1.0
      ],
      "type": "VEC4"
    },
    {
      "bufferView": 1,
      "byteOffset": 1572768,
      "componentType": 5126,
      "count": 57350,
      "max": [
        0.9972081184387207,
        0.9979147911071777
      ],
      "min": [
        0.0019126500701531768,
        0.0019126500701531768
      ],
      "type": "VEC2"
    },
    {
      "bufferView": 1,
      "byteOffset": 2031568,
      "componentType": 5126,
      "count": 57350,
      "max": [
        0.9972081184387207,
        0.9979147911071777
      ],
      "min": [
        0.0019126500701531768,
        0.0019126500701531768
      ],
      "type": "VEC2"
    },
    {
      "bufferView": 1,
      "byteOffset": 2490368,
      "componentType": 5126,
      "count": 57350,
      "max": [
        0.9972081184387207,
        0.9979147911071777
      ],
      "min": [
        0.0019126500701531768,
        0.0019126500701531768
      ],
      "type": "VEC2"
    },
    {
      "bufferView": 0,
      "byteOffset": 1270560,
      "componentType": 5125,
      "count": 240180,
      "type": "SCALAR"
    }
  ],
  "asset": {
    "extras": {
      "author": "aqpetteri (https://sketchfab.com/aqpetteri)",
      "license": "CC-BY-4.0 (http://creativecommons.org/licenses/by/4.0/)",
      "source": "https://sketchfab.com/3d-models/corona-virus-covid-19-9b791066661241bfbf37327fa9cbd473",
      "title": "Corona Virus COVID-19"
    },
    "generator": "Sketchfab-12.68.0",
    "version": "2.0"
  },
  "bufferViews": [
    {
      "buffer": 0,
      "byteLength": 2231280,
      "name": "floatBufferViews",
      "target": 34963
    },
    {
      "buffer": 0,
      "byteLength": 2949168,
      "byteOffset": 2231280,
      "byteStride": 8,
      "name": "floatBufferViews",
      "target": 34962
    },
    {
      "buffer": 0,
      "byteLength": 2949168,
      "byteOffset": 5180448,
      "byteStride": 12,
      "name": "floatBufferViews",
      "target": 34962
    },
    {
      "buffer": 0,
      "byteLength": 1966112,
      "byteOffset": 8129616,
      "byteStride": 16,
      "name": "floatBufferViews",
      "target": 34962
    }
  ],
  "buffers": [
    {
      "byteLength": 10095728,
      "uri": "scene.bin"
    }
  ],
  "images": [
    {
      "uri": "textures/Material_baseColor.jpeg"
    },
    {
      "uri": "textures/Material_metallicRoughness.png"
    },
    {
      "uri": "textures/Material_normal.png"
    }
  ],
  "materials": [
    {
      "doubleSided": true,
      "name": "Material",
      "normalTexture": {
        "index": 2,
        "scale": 0.6
      },
      "occlusionTexture": {
        "index": 1
      },
      "pbrMetallicRoughness": {
        "baseColorTexture": {
          "index": 0
        },
        "metallicFactor": 0.0,
        "metallicRoughnessTexture": {
          "index": 1
        },
        "roughnessFactor": 0.7847891658185476
      }
    }
  ],
  "meshes": [
    {
      "name": "VirusMedpoly.002_Material_0",
      "primitives": [
        {
          "attributes": {
            "NORMAL": 1,
            "POSITION": 0,
            "TANGENT": 2,
            "TEXCOORD_0": 3,
            "TEXCOORD_1": 4,
            "TEXCOORD_2": 5
          },
          "indices": 6,
          "material": 0,
          "mode": 4
        }
      ]
    },
    {
      "name": "VirusMedpoly.002_Material_0",
      "primitives": [
        {
          "attributes": {
            "NORMAL": 8,
            "POSITION": 7,
            "TANGENT": 9,
            "TEXCOORD_0": 10,
            "TEXCOORD_1": 11,
            "TEXCOORD_2": 12
          },
          "indices": 13,
          "material": 0,
          "mode": 4
        }
      ]
    }
  ],
  "nodes": [
    {
      "children": [
        1
      ],
      "matrix": [
        1.0,
        0.0,
        0.0,
        0.0,
        0.0,
        2.220446049250313e-16,
        -1.0,
        0.0,
        0.0,
        1.0,
        2.220446049250313e-16,
        0.0,
        0.0,
        0.0,
        0.0,
        1.0
      ],
      "name": "Sketchfab_model"
    },
    {
      "children": [
        2
      ],
      "matrix": [
        1.0,
        0.0,
        0.0,
        0.0,
        0.0,
        0.0,
        1.0,
        0.0,
        0.0,
        -1.0,
        0.0,
        0.0,
        0.0,
        0.0,
        0.0,
        1.0
      ],
      "name": "CoronaModel.fbx"
    },
    {
      "children": [
        3
      ],
      "name": "RootNode"
    },
    {
      "children": [
        4,
        5
      ],
      "matrix": [
        100.0,
        0.0,
        0.0,
        0.0,
        0.0,
        -1.629206793918314e-05,
        -99.99999999999868,
        0.0,
        0.0,
        99.99999999999868,
        -1.629206793918314e-05,
        0.0,
        0.0,
        0.0,
        0.0,
        1.0
      ],
      "name": "VirusMedpoly.002"
    },
    {
      "mesh": 0,
      "name": "VirusMedpoly.002_Material_0"
    },
    {
      "mesh": 1,
      "name": "VirusMedpoly.002_Material_0"
    }
  ],
  "samplers": [
    {
      "magFilter": 9729,
      "minFilter": 9987,
      "wrapS": 10497,
      "wrapT": 10497
    }
  ],
  "scene": 0,
  "scenes": [
    {
      "name": "Sketchfab_Scene",
      "nodes": [
        0
      ]
    }
  ],
  "textures": [
    {
      "sampler": 0,
      "source": 0
    },
    {
      "sampler": 0,
      "source": 1
    },
    {
      "sampler": 0,
      "source": 2
    }
  ]
}
